<?xml version="1.0" encoding="UTF-8" standalone="no"?>
<svg
   xmlns:dc="http://purl.org/dc/elements/1.1/"
   xmlns:cc="http://creativecommons.org/ns#"
   xmlns:rdf="http://www.w3.org/1999/02/22-rdf-syntax-ns#"
   xmlns:svg="http://www.w3.org/2000/svg"
   xmlns="http://www.w3.org/2000/svg"
   version="1.1"
   id="svg2"
   viewBox="0 0 512 174.99999"
   height="175"
   width="512">
  <title
     id="title4390">SQLUP logo</title>
  <defs
     id="defs4" />
  <metadata
     id="metadata7">
    <rdf:RDF>
      <cc:Work
         rdf:about="">
        <dc:format>image/svg+xml</dc:format>
        <dc:type
           rdf:resource="http://purl.org/dc/dcmitype/StillImage" />
        <dc:title>SQLUP logo</dc:title>
        <cc:license
           rdf:resource="http://creativecommons.org/licenses/by-sa/3.0/" />
        <dc:creator>
          <cc:Agent>
            <dc:title>startx</dc:title>
          </cc:Agent>
        </dc:creator>
      </cc:Work>
      <cc:License
         rdf:about="http://creativecommons.org/licenses/by-sa/3.0/">
        <cc:permits
           rdf:resource="http://creativecommons.org/ns#Reproduction" />
        <cc:permits
           rdf:resource="http://creativecommons.org/ns#Distribution" />
        <cc:requires
           rdf:resource="http://creativecommons.org/ns#Notice" />
        <cc:requires
           rdf:resource="http://creativecommons.org/ns#Attribution" />
        <cc:permits
           rdf:resource="http://creativecommons.org/ns#DerivativeWorks" />
        <cc:requires
           rdf:resource="http://creativecommons.org/ns#ShareAlike" />
      </cc:License>
    </rdf:RDF>
  </metadata>
  <path
     id="path4156-5"
     d="m 414.65513,118.52533 c -0.0554,21.40065 93.39895,21.40065 93.4558,-0.003 0,5.13259 -0.055,22.12261 -0.055,28.39905 -10e-4,21.44594 -93.45623,21.44594 -93.45443,0 0,-4.89797 0.0534,-23.81172 0.0534,-28.39605 z"
     style="fill:#6e67f4;fill-opacity:0.96657386;fill-rule:evenodd;stroke:#050068;stroke-width:2.89049959;stroke-linecap:square;stroke-linejoin:bevel;stroke-miterlimit:7;stroke-dasharray:8.67149954, 8.67149954;stroke-dashoffset:0;stroke-opacity:1" />
  <path
     style="fill:#050068;fill-opacity:1;fill-rule:evenodd;stroke:#050068;stroke-width:2.89049959;stroke-linecap:square;stroke-linejoin:bevel;stroke-miterlimit:7;stroke-dasharray:none;stroke-opacity:1"
     d="m 414.65513,78.125781 c -0.0554,21.400639 93.39895,21.400639 93.4558,-0.0028 0,5.132593 -0.055,22.122609 -0.055,28.399049 -10e-4,21.44595 -93.45623,21.44595 -93.45443,0 0,-4.89796 0.0534,-23.81172 0.0534,-28.396055 z"
     id="path4217" />
  <path
     id="path4237"
     d="m 414.65513,37.017456 c -0.0554,21.400646 93.39895,21.400646 93.4558,-0.0028 0,5.132595 -0.055,22.122613 -0.055,28.399048 -10e-4,21.445944 -93.45623,21.445944 -93.45443,0 0,-4.897961 0.0534,-23.811717 0.0534,-28.39605 z"
     style="fill:#050068;fill-opacity:1;fill-rule:evenodd;stroke:#050068;stroke-width:2.89049959;stroke-linecap:square;stroke-linejoin:bevel;stroke-miterlimit:7;stroke-dasharray:none;stroke-opacity:1" />
  <ellipse
     ry="17.437292"
     rx="46.567848"
     cy="23.505407"
     cx="461.36743"
     id="ellipse4239"
     style="opacity:1;fill:#050068;fill-opacity:1;fill-rule:nonzero;stroke:#050068;stroke-width:3.09121966;stroke-linecap:round;stroke-linejoin:round;stroke-miterlimit:4;stroke-dasharray:none;stroke-dashoffset:0;stroke-opacity:1" />
  <circle
     r="14.153235"
     cy="139.34593"
     cx="332.90085"
     id="path4241"
     style="opacity:1;fill:#6e67f4;fill-opacity:0.96657386;fill-rule:nonzero;stroke:#050068;stroke-width:4;stroke-linecap:square;stroke-linejoin:bevel;stroke-miterlimit:7;stroke-dasharray:none;stroke-dashoffset:0;stroke-opacity:1" />
  <g
     transform="matrix(0.41292855,0,0,0.41292855,560.2638,-6.204697)"
     id="text4243"
     style="font-style:normal;font-variant:normal;font-weight:normal;font-stretch:normal;font-size:95.68115997px;line-height:150%;font-family:Raleway;-inkscape-font-specification:Raleway;letter-spacing:0px;word-spacing:1.20284891px;fill:#050068;fill-opacity:1;stroke:none;stroke-width:1px;stroke-linecap:butt;stroke-linejoin:miter;stroke-opacity:1">
    <path
       id="path4293"
       style="font-style:normal;font-variant:normal;font-weight:bold;font-stretch:normal;font-size:273.37475586px;font-family:Raleway;-inkscape-font-specification:'Raleway Bold';fill:#050068;fill-opacity:1"
       d="m -1221.1556,101.8934 q -1.9136,-1.913626 -7.1077,-5.194123 -4.9208,-3.280497 -12.3019,-6.287619 -7.1077,-3.280497 -15.5823,-5.467496 -8.4747,-2.186998 -17.2227,-2.186998 -15.5823,0 -23.2368,5.74087 -7.6545,5.74087 -7.6545,16.129106 0,6.01425 2.7337,10.11487 3.0072,3.82725 8.4747,6.83437 5.4675,3.00712 13.6687,5.46749 8.4746,2.46038 19.4096,5.19413 14.2155,3.82724 25.6972,8.20124 11.7552,4.37399 19.683,10.93499 8.2013,6.56099 12.5753,15.85573 4.374,9.02137 4.374,22.41673 0,15.58237 -6.0143,26.79073 -5.7409,10.93499 -15.8557,17.76936 -9.8415,6.83437 -22.9635,10.11487 -12.8486,3.00712 -27.0641,3.00712 -21.87,0 -43.1932,-6.561 -21.3232,-6.56099 -38.2725,-18.58948 l 16.6759,-32.5316 q 2.4604,2.46038 8.748,6.561 6.561,3.82724 15.309,7.92787 8.7479,3.82724 19.4096,6.56099 10.6616,2.73375 21.8699,2.73375 31.1648,0 31.1648,-19.95636 0,-6.28762 -3.5539,-10.66161 -3.5539,-4.374 -10.1149,-7.6545 -6.561,-3.2805 -15.8557,-6.01424 -9.2947,-2.73375 -20.7765,-6.01425 -13.9421,-3.82724 -24.3303,-8.20124 -10.1149,-4.64737 -16.9493,-10.66162 -6.8343,-6.28761 -10.3882,-14.21548 -3.2805,-8.20125 -3.2805,-19.40961 0,-14.762237 5.4675,-26.243977 5.4675,-11.48174 15.0356,-19.136233 9.8415,-7.654493 22.6901,-11.48174 12.8486,-4.100621 27.6108,-4.100621 20.5032,0 37.7258,6.560994 17.2226,6.287619 30.0712,15.035612 l -16.6759,30.617975 z" />
    <path
       id="path4295"
       style="font-style:normal;font-variant:normal;font-weight:bold;font-stretch:normal;font-size:273.37475586px;font-family:Raleway;-inkscape-font-specification:'Raleway Bold';fill:#050068;fill-opacity:1"
       d="m -1037.0975,232.56653 q -10.6616,6.56099 -22.9635,10.38824 -12.3018,3.55387 -26.2439,3.55387 -21.3233,0 -38.8193,-8.47461 -17.2226,-8.47462 -29.7978,-22.14336 -12.3019,-13.66874 -19.1362,-31.4381 -6.8344,-17.76936 -6.8344,-36.35884 0,-19.40961 7.1077,-37.17897 7.3812,-17.769355 19.9564,-31.438093 12.8486,-13.668737 30.3446,-21.596605 17.496,-8.201243 37.9991,-8.201243 21.0498,0 38.2725,8.747992 17.4959,8.474618 29.7978,22.41673 12.3019,13.942113 19.13624,31.711469 6.83437,17.76936 6.83437,36.08547 0,18.86286 -6.83437,36.08547 -6.56104,17.22261 -18.58944,30.61797 l 26.5173,29.79785 -35.5387,0 -11.2084,-12.57524 z m -48.9341,-19.40961 q 7.3812,0 13.6688,-1.64025 6.561,-1.91362 12.0285,-4.92074 l -29.5245,-33.35172 35.5387,0 13.3954,15.03561 q 5.4675,-8.74799 8.4746,-19.13623 3.0071,-10.38824 3.0071,-21.04986 0,-12.57524 -4.1006,-24.33035 -3.8273,-11.75512 -11.2084,-20.77648 -7.1077,-9.021371 -17.7693,-14.488866 -10.3883,-5.467495 -23.5103,-5.467495 -13.6687,0 -24.3303,5.74087 -10.6616,5.467495 -17.7694,14.762241 -7.1077,9.29474 -10.935,21.04985 -3.5538,11.48174 -3.5538,23.51023 0,12.57524 3.8272,24.33035 3.8273,11.75512 10.935,20.77649 7.3811,9.02136 17.7694,14.48886 10.6616,5.46749 24.0569,5.46749 z" />
    <path
       id="path4298"
       style="font-style:normal;font-variant:normal;font-weight:bold;font-stretch:normal;font-size:273.37475586px;font-family:Raleway;-inkscape-font-specification:'Raleway Bold';fill:#050068;fill-opacity:1"
       d="m -962.50461,245.14177 0,-194.096077 37.72571,0 0,161.017727 98.96167,0 0,33.07835 -136.68738,0 z" />
    <path
       id="path4300"
       style="font-style:normal;font-variant:normal;font-weight:bold;font-stretch:normal;font-size:273.37475586px;font-family:Raleway;-inkscape-font-specification:'Raleway Bold';fill:#6e67f4;fill-opacity:0.96470588"
       d="m -733.12613,213.15692 q 13.39537,0 22.41673,-5.46749 9.29474,-5.4675 14.76224,-14.21549 5.74087,-8.74799 7.92787,-19.95636 2.46037,-11.48174 2.46037,-23.51023 l 0,-98.961657 37.45234,0 0,98.961657 q 0,19.95636 -4.92074,37.45235 -4.64737,17.49598 -15.03562,30.61797 -10.11486,13.12199 -26.24397,20.77648 -16.12911,7.65449 -38.54584,7.65449 -23.23686,0 -39.63934,-7.92786 -16.12911,-8.20125 -26.24398,-21.32324 -10.11486,-13.39536 -14.76224,-30.89134 -4.37399,-17.49599 -4.37399,-36.35885 l 0,-98.961657 37.72571,0 0,98.961657 q 0,12.30187 2.187,23.78361 2.46038,11.20836 7.92787,19.95636 5.74087,8.74799 14.76224,14.21548 9.02136,5.19412 22.14335,5.19412 z" />
    <path
       id="path4302"
       style="font-style:normal;font-variant:normal;font-weight:bold;font-stretch:normal;font-size:273.37475586px;font-family:Raleway;-inkscape-font-specification:'Raleway Bold';fill:#6e67f4;fill-opacity:0.96470588"
       d="m -610.10749,245.14177 0,-194.096077 82.2858,0 q 13.39537,0 24.60373,5.74087 11.48174,5.467495 19.68298,14.762236 8.20125,9.021367 12.84862,20.776482 4.64737,11.481739 4.64737,23.236859 0,12.30186 -4.374,24.05697 -4.37399,11.48174 -12.30186,20.50311 -7.92787,9.02137 -19.13623,14.48886 -11.20837,5.4675 -24.60373,5.4675 l -45.92696,0 0,65.06319 -37.72572,0 z m 37.72572,-98.14154 43.73996,0 q 10.38824,0 17.22261,-8.47462 7.10774,-8.47461 7.10774,-22.96347 0,-7.38112 -2.18699,-13.12199 -2.187,-6.014248 -5.74087,-10.114869 -3.55388,-4.100621 -8.47462,-6.014245 -4.64737,-2.186998 -9.56812,-2.186998 l -42.09971,0 0,62.876192 z" />
  </g>
  <circle
     style="opacity:1;fill:#6e67f4;fill-opacity:0.96657386;fill-rule:nonzero;stroke:#050068;stroke-width:4;stroke-linecap:square;stroke-linejoin:bevel;stroke-miterlimit:7;stroke-dasharray:none;stroke-dashoffset:0;stroke-opacity:1"
     id="circle4247"
     cx="258.57373"
     cy="139.34593"
     r="14.153235" />
  <circle
     r="14.153235"
     cy="139.34593"
     cx="190.02757"
     id="circle4249"
     style="opacity:1;fill:#6e67f4;fill-opacity:0.96657386;fill-rule:nonzero;stroke:#050068;stroke-width:4;stroke-linecap:square;stroke-linejoin:bevel;stroke-miterlimit:7;stroke-dasharray:none;stroke-dashoffset:0;stroke-opacity:1" />
  <circle
     style="opacity:1;fill:#6e67f4;fill-opacity:0.96657386;fill-rule:nonzero;stroke:#050068;stroke-width:4;stroke-linecap:square;stroke-linejoin:bevel;stroke-miterlimit:7;stroke-dasharray:none;stroke-dashoffset:0;stroke-opacity:1"
     id="circle4251"
     cx="111.57117"
     cy="139.34593"
     r="14.153235" />
  <circle
     r="14.153235"
     cy="139.34593"
     cx="30.637192"
     id="circle4253"
     style="opacity:1;fill:#6e67f4;fill-opacity:0.96657386;fill-rule:nonzero;stroke:#050068;stroke-width:4;stroke-linecap:square;stroke-linejoin:bevel;stroke-miterlimit:7;stroke-dasharray:none;stroke-dashoffset:0;stroke-opacity:1" />
  <path
     id="path4257"
     d="m 44.753587,139.972 52.557283,0"
     style="fill:none;fill-rule:evenodd;stroke:#050068;stroke-width:4;stroke-linecap:butt;stroke-linejoin:miter;stroke-miterlimit:4;stroke-dasharray:none;stroke-opacity:1" />
  <path
     id="path4257-2"
     d="m 125.63336,139.96379 50.18286,0"
     style="fill:none;fill-rule:evenodd;stroke:#050068;stroke-width:4;stroke-linecap:butt;stroke-linejoin:miter;stroke-miterlimit:4;stroke-dasharray:none;stroke-opacity:1" />
  <path
     id="path4257-8"
     d="m 204.21007,139.9977 40.06614,0"
     style="fill:none;fill-rule:evenodd;stroke:#050068;stroke-width:4;stroke-linecap:butt;stroke-linejoin:miter;stroke-miterlimit:4;stroke-dasharray:none;stroke-opacity:1" />
  <path
     id="path4257-1"
     d="m 272.50156,140.01692 46.71756,0"
     style="fill:none;fill-rule:evenodd;stroke:#050068;stroke-width:4;stroke-linecap:butt;stroke-linejoin:miter;stroke-miterlimit:4;stroke-dasharray:none;stroke-opacity:1" />
  <path
     id="path4257-6"
     d="m 346.82304,139.9476 67.74047,0"
     style="fill:none;fill-rule:evenodd;stroke:#050068;stroke-width:4;stroke-linecap:butt;stroke-linejoin:miter;stroke-miterlimit:4;stroke-dasharray:none;stroke-opacity:1" />
</svg>
